<?xml version="1.0" standalone="no"?>
<!DOCTYPE svg PUBLIC "-//W3C//DTD SVG 20010904//EN"
 "http://www.w3.org/TR/2001/REC-SVG-20010904/DTD/svg10.dtd">
<svg version="1.0" xmlns="http://www.w3.org/2000/svg"
 width="768.000000pt" height="768.000000pt" viewBox="0 0 768.000000 768.000000"
 preserveAspectRatio="xMidYMid meet">
<metadata>
Created by potrace 1.11, written by Peter Selinger 2001-2013
</metadata>
<g transform="translate(0.000000,768.000000) scale(0.100000,-0.100000)"
fill="#000000" stroke="none">
<path d="M3419 7656 c-2 -2 -49 -7 -103 -11 -55 -4 -107 -8 -115 -10 -9 -1
-43 -6 -76 -9 -329 -37 -720 -155 -1045 -313 -776 -379 -1385 -1101 -1713
-2028 -53 -149 -104 -322 -121 -405 -3 -14 -14 -65 -25 -115 -11 -49 -23 -112
-27 -140 -3 -27 -8 -53 -10 -56 -2 -3 -6 -37 -9 -75 -3 -38 -9 -82 -12 -99 -9
-54 -11 -348 -1 -420 34 -271 188 -469 472 -609 189 -93 461 -170 706 -201 25
-3 56 -7 70 -9 14 -3 52 -7 85 -11 33 -3 78 -8 100 -10 56 -7 132 -13 400 -30
39 -2 153 -7 255 -10 225 -8 269 -11 276 -17 16 -17 21 -270 10 -483 -7 -142
-10 -169 -22 -285 -3 -36 -8 -80 -10 -99 -2 -19 -5 -48 -8 -65 -3 -17 -8 -53
-11 -81 -4 -27 -10 -77 -15 -110 -5 -33 -12 -78 -15 -100 -4 -22 -8 -51 -11
-65 -2 -14 -13 -72 -24 -130 -11 -58 -22 -118 -25 -135 -5 -25 -36 -164 -50
-225 -2 -8 -18 -71 -35 -140 -59 -228 -70 -353 -41 -482 74 -326 362 -534 884
-638 166 -34 198 -35 737 -35 577 0 614 2 839 46 355 70 575 219 674 455 36
84 57 199 57 306 1 111 -4 156 -35 298 -12 58 -19 87 -21 95 -6 20 -74 290
-78 310 -2 11 -13 61 -25 110 -11 50 -22 103 -25 119 -3 16 -10 52 -16 80 -17
82 -19 95 -40 216 -10 63 -22 138 -25 165 -4 28 -8 57 -10 65 -3 8 -7 44 -10
80 -4 36 -8 76 -11 90 -20 126 -28 651 -9 669 6 5 48 12 95 16 47 3 92 8 100
10 8 2 47 7 85 11 39 3 84 8 100 10 17 1 73 6 125 9 52 3 118 7 145 10 28 2
106 7 175 10 69 4 139 8 155 10 17 1 66 6 110 10 44 3 91 8 105 10 14 2 52 7
85 11 33 5 62 8 65 9 3 1 25 5 50 9 231 40 508 148 598 233 7 7 17 13 21 13
12 0 132 123 171 175 69 94 118 201 135 300 11 60 14 374 5 425 -4 25 -11 72
-15 105 -14 134 -96 453 -162 630 -110 297 -256 586 -432 855 -54 83 -211 295
-248 335 -10 11 -36 43 -58 70 -64 80 -312 324 -415 410 -438 363 -912 605
-1450 740 -202 50 -397 85 -565 100 -38 4 -81 9 -95 12 -28 6 -615 14 -621 9z"/>
</g>
</svg>
